<svg xmlns="http://www.w3.org/2000/svg" width="1024" height="768" viewBox="0 0 1024 768">
	<desc>atlas0</desc>
	<style>
		g>path,g>text{fill:none;stroke:#fea;stroke-width:3;filter:url(#sh);stroke-linecap:round;stroke-linejoin:round;font-family:sans-serif;text-anchor:middle;dominant-baseline:central;}
	</style>
	<defs>
		<filter id="sh" x="-20%" width="140%" y="-20%" height="140%"><feDropShadow dx="0" dy="0" stdDeviation="2" flood-color="#f00"/></filter>
	</defs>
	<g><!--keys-->
		<path d="M0,0m64,9l55,55l-55,55l-55,-55zm39,55a39,39,0,1,0,0,.0001z"/>
		<path d="M128,0m64,15l49,49l-49,49l-49,-49z"/>
		<path d="M256,0m64,25a39,39,0,1,0,.0001,0z"/>
	</g>
	<g transform="translate(0,128)"><!--ui-->
		<path d="M0,0m33,64l24,28l38,-56"/>
		<path d="M128,0m39,39l50,50m0,-50l-50,50"/>
		<path d="M256,0m21,64h86m-43,-43v86"/>
		<path d="M384,0m21,64h86"/>
		<path d="M512,0m80,24l-40,40l40,40"/>
	</g>
	<g transform="translate(0,256)" style="font-size:80px;"><!--char-->
		<path d="M0,0m55.7,26.4h14.6v27.9l27.2,-9.6l5,14l-27.3,8.8l16.9,23.5l-12.3,8.9l-16.4,-24.4l-16.5,24.4l-12.8,-8.9l17.2,-23.5l-27.5,-8.9l5,-13.8l27,9.7z"/>
		<text x="192" y="64">♫</text>
		<g style="opacity:.6;" transform="translate(256,0)">
			<g style="font-size:60px;"><text x="48" y="80">♭</text><text x="80" y="48">♯</text></g>
			<g transform="translate(128,0)"><text x="44" y="64" >♩</text><text x="84" y="64">=</text></g>
		</g>
		<text x="576" y="64">?</text>
	</g>
	<g transform="translate(0,384)"><!--audio-->
		<path d="M0,0m36,32v64l56,-32z"/>
		<path d="M128,0m16,32v64l48,-32zm48,0v64h16v-64zm32,0v64h16v-64z"/>
		<path d="M256,0m32,32v64h64v-64z"/>
		<path d="M384,0m16,32v64h8v-64zm16,0v64h8v-64zm16,0v64l64,-32z"/>
		<g transform="translate(512,0)"><path d="m64,26a38,38,0,1,0,.0001,0z"/><path d="m64,45a19,19,0,1,0,.0001,0z" style="fill:#fea"/></g>
	</g>
	<g transform="translate(0,512)"><!--edit-->
		<path d="M0,0m64,64m18,9a18,12,26.6,1,0,0.01,0l-66,-33a48,24,0,0,1,0,48l66,-33a18,12,-26.6,1,1,0.01,0"/>
		<path d="M128,0m37,33h32l16,16v52l-48,0z"/><path d="M128,0m43,27h48v68" stroke-dasharray="7"/>
		<path d="M256,0m38,34h32l16,16v52l-48,0z m4,-8h15v-6h24v6h15v72"/>
		<path d="M384,0m80,64v-40h-56v56h40" stroke-dasharray="7"/><path d="M384,0m68,64v36l8,-8l7,16l6,-3l-7,-16h12z"/>
		<path d="M512,0m41.37,41.37m0,45.26a32,32,0,1,0,0,-45.26l-4,4m0,-16v16h16"/>
		<path d="M640,0m44,32h64v64h-64l-24,-32zm16,16l32,32m0,-32l-32,32"/>
		<path d="M768,0m21,21h86v86h-86zm43,15v56m-28,-28h56"/>
	</g>
	<g transform="translate(0,640)"><!--file-->
		<path d="M0,0m36,24h36l20,20v60h-56z"/>
		<path d="M128,0m36,24h36l20,20v60h-56z m12,40h32m-16,-16v32"/>
		<path d="M256,0m36,24h36l20,20v60h-56z m12,24l32,32m-32,0l32,-32"/>
		<path d="M384,0m42,18h36l20,20v60h-56z m-12,12h36l20,20v60h-56z"/>
		<path d="M512,0m36,80v-56h36l20,20v36m0,12v12h-56v-12 M512,0m35,86h58 M512,0m74,50v28m-3,0h6m0,-28h-6"/>
		<path d="M640,0m56,24h-20v80h56v-60l-20,-20h-8v52l-16,-18m32,0l-16,18"/>
		<path d="M768,0m36,24h36l20,20v60h-56v-28m0,-24v-28 m-4,40h48l-18,-16m0,32l18,-16"/>
		<path d="M896,0m36,24h36l20,20v8m0,24v28h-56v-80 m12,40h48l-18,-16m0,32l18,-16"/>
	</g>
	<rect x="896" y="0" width="128" height="128" fill="#1D9BF0"/>
	<path fill="#fff" d="M896,0m49.152,96.512c30.176,0,46.688,-25.024,46.688,-46.688c0,-0.704,0,-1.408,-0.032,-2.112c3.2,-2.304,5.984,-5.216,8.192,-8.512c-2.944,1.312,-6.112,2.176,-9.44,2.592c3.392,-2.016,5.984,-5.248,7.232,-9.088c-3.168,1.888,-6.688,3.232,-10.432,3.968c-3.008,-3.2,-7.264,-5.184,-11.968,-5.184c-9.056,0,-16.416,7.36,-16.416,16.416c0,1.28,0.16,2.528,0.416,3.744c-13.632,-0.672,-25.728,-7.232,-33.824,-17.152c-1.408,2.432,-2.208,5.248,-2.208,8.256c0,5.696,2.912,10.72,7.296,13.664c-2.688,-0.096,-5.216,-0.832,-7.424,-2.048c0,0.064,0,0.128,0,0.224c0,7.936,5.664,14.592,13.152,16.096c-1.376,0.384,-2.816,0.576,-4.32,0.576c-1.056,0,-2.08,-0.096,-3.072,-0.288c2.08,6.528,8.16,11.264,15.328,11.392c-5.632,4.416,-12.704,7.04,-20.384,7.04c-1.312,0,-2.624,-0.064,-3.904,-0.224c7.232,4.608,15.872,7.328,25.12,7.328"/>
	<path fill="#fff" d="M896,128m88.6045,41.3978c-4.525,-2.076,-9.378,-3.606,-14.452,-4.482c-0.092,-0.017,-0.184,0.025,-0.232,0.109c-0.624,1.111,-1.316,2.559,-1.8,3.697c-5.457,-0.817,-10.886,-0.817,-16.231,0c-0.485,-1.164,-1.201,-2.587,-1.828,-3.697c-0.047,-0.081,-0.14,-0.123,-0.232,-0.109c-5.071,0.873,-9.924,2.403,-14.452,4.482c-0.039,0.017,-0.073,0.045,-0.095,0.082c-9.205,13.751,-11.726,27.165,-10.489,40.412c0.006,0.064,0.042,0.126,0.092,0.166c6.073,4.46,11.956,7.167,17.729,8.962c0.093,0.028,0.19,-0.006,0.249,-0.082c1.366,-1.865,2.583,-3.831,3.627,-5.899c0.062,-0.122,0.003,-0.265,-0.123,-0.313c-1.931,-0.733,-3.77,-1.626,-5.538,-2.64c-0.14,-0.082,-0.151,-0.282,-0.023,-0.378c0.372,-0.278,0.745,-0.569,1.1,-0.862c0.064,-0.053,0.154,-0.064,0.23,-0.031c11.619,5.305,24.199,5.305,35.681,0c0.076,-0.036,0.166,-0.025,0.233,0.029c0.355,0.293,0.727,0.586,1.102,0.864c0.129,0.096,0.121,0.296,-0.019,0.378c-1.769,1.034,-3.608,1.907,-5.541,2.637c-0.126,0.048,-0.182,0.194,-0.121,0.316c1.067,2.065,2.284,4.031,3.624,5.896c0.056,0.079,0.157,0.113,0.25,0.085c5.801,-1.795,11.684,-4.502,17.756,-8.962c0.054,-0.04,0.087,-0.099,0.093,-0.164c1.48,-15.315,-2.48,-28.618,-10.498,-40.411c-0.019,-0.04,-0.053,-0.068,-0.092,-0.085zm-36.379,32.427c-3.498,0.001,-6.38,-3.211,-6.38,-7.155c0,-3.945,2.826,-7.156,6.38,-7.156c3.582,0,6.437,3.239,6.381,7.156c0,3.944,-2.827,7.156,-6.381,7.156zm23.592,0c-3.498,0,-6.381,-3.212,-6.381,-7.156c0,-3.944,2.827,-7.156,6.381,-7.156c3.582,0,6.437,3.24,6.381,7.156c0,3.944,-2.799,7.156,-6.381,7.156z"/>
</svg>
